<?xml version="1.0" encoding="UTF-8" standalone="no"?>
<!-- Generator: Adobe Illustrator 19.0.0, SVG Export Plug-In . SVG Version: 6.00 Build 0)  -->

<svg
   xmlns:dc="http://purl.org/dc/elements/1.1/"
   xmlns:cc="http://creativecommons.org/ns#"
   xmlns:rdf="http://www.w3.org/1999/02/22-rdf-syntax-ns#"
   xmlns:svg="http://www.w3.org/2000/svg"
   xmlns="http://www.w3.org/2000/svg"
   xmlns:sodipodi="http://sodipodi.sourceforge.net/DTD/sodipodi-0.dtd"
   xmlns:inkscape="http://www.inkscape.org/namespaces/inkscape"
   version="1.1"
   id="Capa_1"
   x="0px"
   y="0px"
   viewBox="0 0 435.104 435.104"
   style="enable-background:new 0 0 435.104 435.104;"
   xml:space="preserve"
   sodipodi:docname="owned.svg"
   inkscape:version="0.92.3 (2405546, 2018-03-11)"><metadata
   id="metadata3851"><rdf:RDF><cc:Work
       rdf:about=""><dc:format>image/svg+xml</dc:format><dc:type
         rdf:resource="http://purl.org/dc/dcmitype/StillImage" /></cc:Work></rdf:RDF></metadata><defs
   id="defs3849" /><sodipodi:namedview
   pagecolor="#ffffff"
   bordercolor="#666666"
   borderopacity="1"
   objecttolerance="10"
   gridtolerance="10"
   guidetolerance="10"
   inkscape:pageopacity="0"
   inkscape:pageshadow="2"
   inkscape:window-width="1853"
   inkscape:window-height="1025"
   id="namedview3847"
   showgrid="false"
   inkscape:zoom="1.9397661"
   inkscape:cx="217.552"
   inkscape:cy="217.552"
   inkscape:window-x="67"
   inkscape:window-y="27"
   inkscape:window-maximized="1"
   inkscape:current-layer="Capa_1" />
<g
   id="g3814"
   style="fill:#008000">
	<g
   id="g3812"
   style="fill:#008000">
		<g
   id="g3810"
   style="fill:#008000">
			<circle
   cx="154.112"
   cy="377.684"
   r="52.736"
   id="circle3802"
   style="fill:#008000" />
			<path
   d="M323.072,324.436L323.072,324.436c-29.267-2.88-55.327,18.51-58.207,47.777c-2.88,29.267,18.51,55.327,47.777,58.207     c3.468,0.341,6.962,0.341,10.43,0c29.267-2.88,50.657-28.94,47.777-58.207C368.361,346.928,348.356,326.924,323.072,324.436z"
   id="path3804"
   style="fill:#008000" />
			<path
   d="M431.616,123.732c-2.62-3.923-7.059-6.239-11.776-6.144h-58.368v-1.024C361.476,54.637,311.278,4.432,249.351,4.428     C187.425,4.424,137.22,54.622,137.216,116.549c0,0.005,0,0.01,0,0.015v1.024h-43.52L78.848,50.004     C77.199,43.129,71.07,38.268,64,38.228H0v30.72h51.712l47.616,218.624c1.257,7.188,7.552,12.397,14.848,12.288h267.776     c7.07-0.041,13.198-4.901,14.848-11.776l37.888-151.552C435.799,132.019,434.654,127.248,431.616,123.732z M249.344,197.972     c-44.96,0-81.408-36.448-81.408-81.408s36.448-81.408,81.408-81.408s81.408,36.448,81.408,81.408     C330.473,161.408,294.188,197.692,249.344,197.972z"
   id="path3806"
   style="fill:#008000" />
			<path
   d="M237.056,118.1l-28.16-28.672l-22.016,21.504l38.912,39.424c2.836,2.894,6.7,4.55,10.752,4.608     c3.999,0.196,7.897-1.289,10.752-4.096l64.512-60.928l-20.992-22.528L237.056,118.1z"
   id="path3808"
   style="fill:#008000" />
		</g>
	</g>
</g>
<g
   id="g3816">
</g>
<g
   id="g3818">
</g>
<g
   id="g3820">
</g>
<g
   id="g3822">
</g>
<g
   id="g3824">
</g>
<g
   id="g3826">
</g>
<g
   id="g3828">
</g>
<g
   id="g3830">
</g>
<g
   id="g3832">
</g>
<g
   id="g3834">
</g>
<g
   id="g3836">
</g>
<g
   id="g3838">
</g>
<g
   id="g3840">
</g>
<g
   id="g3842">
</g>
<g
   id="g3844">
</g>
</svg>